<mxfile host="app.diagrams.net" agent="Mozilla/5.0 (Windows NT 10.0; Win64; x64) AppleWebKit/537.36 (KHTML, like Gecko) Chrome/131.0.0.0 Safari/537.36" version="26.0.5">
  <diagram id="C5RBs43oDa-KdzZeNtuy" name="Page-1">
    <mxGraphModel dx="1050" dy="1691" grid="1" gridSize="10" guides="1" tooltips="1" connect="1" arrows="1" fold="1" page="1" pageScale="1" pageWidth="827" pageHeight="1169" background="#CCCCCC" math="0" shadow="0" adaptiveColors="auto">
      <root>
        <mxCell id="WIyWlLk6GJQsqaUBKTNV-0" />
        <mxCell id="WIyWlLk6GJQsqaUBKTNV-1" parent="WIyWlLk6GJQsqaUBKTNV-0" />
        <mxCell id="RVoqzGz0xDymUPImZWvI-0" value="&lt;font face=&quot;Times New Roman&quot; style=&quot;font-size: 24px;&quot;&gt;&lt;b&gt;Hybrid Programming Chart&lt;/b&gt;&lt;/font&gt;" style="rounded=1;whiteSpace=wrap;html=1;labelBackgroundColor=none;fillColor=#F2CC8F;strokeColor=#E07A5F;fontColor=#393C56;glass=0;shadow=0;" vertex="1" parent="WIyWlLk6GJQsqaUBKTNV-1">
          <mxGeometry x="460" y="-60" width="390" height="60" as="geometry" />
        </mxCell>
        <mxCell id="RVoqzGz0xDymUPImZWvI-4" value="WEB DEV" style="swimlane;whiteSpace=wrap;html=1;startSize=23;labelBackgroundColor=none;fillColor=#F2CC8F;strokeColor=#E07A5F;fontColor=#393C56;rounded=1;" vertex="1" parent="WIyWlLk6GJQsqaUBKTNV-1">
          <mxGeometry x="180" y="120" width="300" height="260" as="geometry">
            <mxRectangle x="150" y="150" width="100" height="30" as="alternateBounds" />
          </mxGeometry>
        </mxCell>
        <mxCell id="RVoqzGz0xDymUPImZWvI-8" value="&lt;font style=&quot;font-size: 18px;&quot;&gt;- HTML CSS JS (review)&lt;/font&gt;&lt;div&gt;&lt;li&gt;&lt;font size=&quot;3&quot;&gt;Frontend: React&lt;/font&gt;&lt;/li&gt;&lt;li&gt;&lt;font size=&quot;3&quot;&gt;Backend: Node.js + Express&lt;/font&gt;&lt;/li&gt;&lt;li&gt;&lt;font size=&quot;3&quot;&gt;Databases: MongoDB&lt;/font&gt;&lt;/li&gt;&lt;/div&gt;&lt;div&gt;&lt;br&gt;&lt;/div&gt;" style="text;html=1;align=center;verticalAlign=middle;resizable=0;points=[];autosize=1;strokeColor=#36393d;fillColor=#cce5ff;labelBackgroundColor=none;rounded=0;" vertex="1" parent="RVoqzGz0xDymUPImZWvI-4">
          <mxGeometry x="30" y="80" width="240" height="110" as="geometry" />
        </mxCell>
        <mxCell id="RVoqzGz0xDymUPImZWvI-5" value="AI/ML" style="swimlane;whiteSpace=wrap;html=1;labelBackgroundColor=none;fillColor=#F2CC8F;strokeColor=#E07A5F;fontColor=#393C56;rounded=1;" vertex="1" parent="WIyWlLk6GJQsqaUBKTNV-1">
          <mxGeometry x="660" y="120" width="410" height="260" as="geometry" />
        </mxCell>
        <mxCell id="RVoqzGz0xDymUPImZWvI-9" value="&lt;li&gt;&lt;font style=&quot;font-size: 14px;&quot;&gt;Python Basics&lt;br&gt;&amp;nbsp;Machine Learning: Scikit-learn&lt;br&gt;. Deep Learning: TensorFlow/Keras&lt;/font&gt;&lt;/li&gt;&lt;li&gt;&lt;font size=&quot;3&quot;&gt;&lt;strong&gt;Integration&lt;/strong&gt;:&lt;br&gt;&amp;nbsp;Combine AI Models with&amp;nbsp;&lt;/font&gt;&lt;/li&gt;&lt;li&gt;&lt;font size=&quot;3&quot;&gt;Web Apps (e.g., Chatbots, Recommendation&lt;/font&gt;&lt;/li&gt;" style="text;html=1;align=center;verticalAlign=middle;resizable=0;points=[];autosize=1;fillColor=#cce5ff;labelBackgroundColor=none;rounded=0;shadow=0;strokeColor=#36393d;glass=0;" vertex="1" parent="RVoqzGz0xDymUPImZWvI-5">
          <mxGeometry x="25" y="60" width="360" height="120" as="geometry" />
        </mxCell>
        <mxCell id="RVoqzGz0xDymUPImZWvI-16" style="edgeStyle=orthogonalEdgeStyle;rounded=1;orthogonalLoop=1;jettySize=auto;html=1;entryX=0.524;entryY=-0.014;entryDx=0;entryDy=0;entryPerimeter=0;labelBackgroundColor=none;strokeColor=#E07A5F;fontColor=default;" edge="1" parent="WIyWlLk6GJQsqaUBKTNV-1" source="RVoqzGz0xDymUPImZWvI-0" target="RVoqzGz0xDymUPImZWvI-5">
          <mxGeometry relative="1" as="geometry" />
        </mxCell>
        <mxCell id="RVoqzGz0xDymUPImZWvI-17" style="edgeStyle=orthogonalEdgeStyle;rounded=1;orthogonalLoop=1;jettySize=auto;html=1;exitX=0.25;exitY=1;exitDx=0;exitDy=0;entryX=0.525;entryY=-0.002;entryDx=0;entryDy=0;entryPerimeter=0;labelBackgroundColor=none;strokeColor=#E07A5F;fontColor=default;" edge="1" parent="WIyWlLk6GJQsqaUBKTNV-1" source="RVoqzGz0xDymUPImZWvI-0" target="RVoqzGz0xDymUPImZWvI-4">
          <mxGeometry relative="1" as="geometry" />
        </mxCell>
      </root>
    </mxGraphModel>
  </diagram>
</mxfile>
